<svg aria-hidden="true" style="position: absolute; width: 0; height: 0; overflow: hidden;" version="1.1" xmlns="http://www.w3.org/2000/svg" xmlns:xlink="http://www.w3.org/1999/xlink">
<defs>

<symbol id="tel-footer" viewBox="0 0 32 32">
<path fill="#ff6b09" style="fill: var(--color1, #ff6b09)" d="M4.656 0.003c-0.553 0.025-1.044 0.27-1.391 0.65l-0.001 0.002-2.592 2.85c0.003-0.008-0.010-0.006-0.083 0.096-0.038 0.050-0.069 0.109-0.090 0.172l-0.001 0.004c-1.056 3.365-0.347 7.066 1.376 10.586 1.725 3.52 4.477 6.886 7.634 9.651 3.158 2.763 6.722 4.926 10.12 5.998 3.397 1.072 6.691 1.059 9.133-0.712 0.027-0.021 0.051-0.042 0.073-0.065l0-0c0.064-0.064 0.067-0.072 0.056-0.062l0.010-0.013 2.582-2.84c0.322-0.357 0.519-0.831 0.519-1.352 0-0.587-0.25-1.116-0.65-1.485l-6.128-5.572c-0.357-0.322-0.832-0.52-1.353-0.52-0.588 0-1.117 0.251-1.486 0.651l-0.001 0.001-2.771 3.048c-2.25-0.653-4.173-1.757-6.024-3.44-1.851-1.678-3.133-3.49-3.994-5.669l2.771-3.048c0.322-0.356 0.52-0.831 0.52-1.352 0-0.588-0.251-1.117-0.653-1.486l-0.001-0.001-6.125-5.573c-0.355-0.324-0.829-0.522-1.35-0.522-0.035 0-0.070 0.001-0.105 0.003l0.005-0zM4.715 1.251c0.008-0 0.018-0.001 0.028-0.001 0.198 0 0.379 0.077 0.513 0.203l-0-0 6.125 5.571c0.155 0.136 0.253 0.334 0.253 0.555 0 0.196-0.077 0.374-0.202 0.506l0-0-3.064 3.366c-0.101 0.111-0.163 0.26-0.163 0.423 0 0.078 0.014 0.152 0.040 0.221l-0.001-0.004c0.93 2.536 2.43 4.618 4.493 6.494 2.064 1.877 4.275 3.174 6.89 3.859 0.047 0.013 0.102 0.020 0.158 0.020 0.184 0 0.35-0.079 0.466-0.205l0-0 3.066-3.366c0.136-0.154 0.333-0.251 0.553-0.251 0.196 0 0.374 0.077 0.506 0.202l6.128 5.571c0.154 0.136 0.25 0.333 0.25 0.553 0 0.196-0.077 0.375-0.202 0.507l0-0-2.56 2.816c-2.005 1.437-4.827 1.518-7.987 0.52-3.173-1.002-6.618-3.075-9.666-5.744-3.050-2.669-5.702-5.926-7.333-9.254-1.614-3.293-2.2-6.624-1.312-9.558l2.502-2.749c0.129-0.145 0.312-0.24 0.518-0.251l0.002-0z"></path>
</symbol>

<symbol id="burger-close" viewBox="0 0 32 32">
<path d="M26.667 7.303l-1.97-1.97-7.808 7.808-7.808-7.808-1.97 1.97 7.808 7.808-7.808 7.808 1.97 1.97 7.808-7.808 7.808 7.808 1.97-1.97-7.808-7.808 7.808-7.808z"></path>
</symbol>

<symbol id="burger-menu" viewBox="0 0 21 14">
<path d="M0 1H20.5" stroke="black" stroke-width="2"/>
<path d="M0 7H20.5" stroke="black" stroke-width="2"/>
<path d="M0 13H20.5" stroke="black" stroke-width="2"/>
</symbol>

<symbol id="icon-menu" viewBox="0 0 48 32">
<path stroke-linejoin="miter" stroke-linecap="butt" stroke-miterlimit="4" stroke-width="4.5714" d="M0 2.286h46.857M0 16h46.857M0 29.714h46.857"></path>
</symbol>

<symbol id="icon-advantages-methods" viewBox="0 0 31 32">
<path fill="#ff6b09" style="fill: var(--color1, #ff6b09)" d="M20.406 8.558h-7.116c-0.464 0.001-0.839 0.376-0.84 0.84v2.946l-5.287 2.219c-0.063 0.027-0.106 0.088-0.106 0.159 0 0.062 0.033 0.117 0.083 0.147l0.001 0 0.674 0.403v4.3c-0.348 0.082-0.603 0.389-0.603 0.756v0.415c0 0.095 0.077 0.172 0.172 0.172h1.207c0.095 0 0.172-0.077 0.172-0.172v0-0.414c0-0.369-0.259-0.677-0.604-0.756v-4.094l0.533 0.319c-0.017 0.123-0.002-0.214-0.008 2.002 0 0.729 1.866 1.119 3.765 1.141v3.356c0 0.463 0.376 0.839 0.839 0.839 0 0 0 0 0.001 0h7.116c0.463-0 0.839-0.376 0.839-0.839v-0c0 0.023-0.001-0.711 0-12.898 0-0.457-0.378-0.84-0.839-0.84zM8.419 20.328v0.242h-0.862v-0.242c0-0.238 0.193-0.433 0.43-0.433s0.432 0.194 0.432 0.433zM20.406 22.79h-7.116c-0.171 0-0.322-0.086-0.411-0.218-0.053-0.077-0.085-0.173-0.085-0.276 0-0 0-0.001 0-0.001v0-1.163h8.105v1.164c0 0.27-0.225 0.494-0.494 0.494zM20.9 20.788h-8.105v-1.847c0.927-0.010 3.767-0.215 3.767-1.142-0.001-1.392 0.002-1.957-0.004-2.005l1.546-0.926c0.050-0.031 0.083-0.085 0.083-0.148 0-0.071-0.043-0.132-0.104-0.158l-0.001-0-5.286-2.219v-1.438h8.105v9.883zM12.622 16.656c-0.955 0-2.794 0.123-3.592 0.645 0.005-1.595-0.055-1.491 0.141-1.627 0.496-0.365 1.916-0.62 3.451-0.62 0.67 0 3.595 0.184 3.595 0.803v1.444c-0.806-0.526-2.636-0.645-3.595-0.645zM12.794 9.398c0-0.273 0.222-0.495 0.495-0.495 0 0 0 0 0 0h7.116c0.273 0 0.494 0.225 0.494 0.495v1.163h-8.105v-1.163zM12.622 12.644l5.012 2.104-1.242 0.743c-0.66-0.655-2.844-0.782-3.77-0.782-0.927 0-3.111 0.127-3.77 0.782l-1.242-0.743 5.012-2.104zM9.030 17.799c0-0.279 1.234-0.799 3.592-0.799 2.36 0 3.595 0.52 3.595 0.799s-1.235 0.799-3.595 0.799c-2.358 0-3.592-0.52-3.592-0.799z"></path>
<path fill="#ff6b09" style="fill: var(--color1, #ff6b09)" d="M16.848 21.392c-0.314 0-0.569 0.255-0.569 0.569s0.255 0.57 0.569 0.57 0.569-0.255 0.569-0.57c0-0.314-0.255-0.569-0.569-0.569zM16.848 22.186c-0.118-0.008-0.211-0.106-0.211-0.225s0.093-0.217 0.21-0.225l0.001-0c0.121 0.005 0.217 0.104 0.217 0.225s-0.096 0.22-0.216 0.225h-0zM17.505 9.56h-1.314v0.344h1.314v-0.344z"></path>
<path fill="none" stroke="#ff6b09" style="stroke: var(--color1, #ff6b09)" stroke-linejoin="miter" stroke-linecap="butt" stroke-miterlimit="4" stroke-width="0.6154" d="M31.077 4.615v-4.308h-30.769v31.385h30.769v-4.308"></path>
</symbol>

<symbol id="icon-advantages-progpam" viewBox="0 0 31 32">
<path fill="#ff6b09" style="fill: var(--color1, #ff6b09)" d="M7.953 23.273h12.362c0.062-1.41-0.040-3.749-0.906-4.862l-0.031-0.040-1.894-0.951c0.041-0.139 0.062-0.266 0.070-0.359 0.002-0.019 0.003-0.041 0.003-0.063 0-0.090-0.018-0.176-0.051-0.254l0.002 0.004c-0.312-0.748-0.974-1.141-1.337-1.309 0.111-0.223 0.182-0.463 0.217-0.708 0.21-0.060 0.372-0.226 0.425-0.435l0.001-0.004 0.221-0.898c0.012-0.044 0.018-0.095 0.018-0.147 0-0.116-0.033-0.225-0.090-0.318l0.002 0.003c-0.037-0.060-0.082-0.111-0.134-0.153l-0.001-0.001c0.623-1.416-0.421-2.751-0.478-2.822-1.13-1.222-2.559-0.994-2.634-0.98-2.061 0.432-2.857 2.011-2.408 3.864-0.097 0.107-0.157 0.251-0.157 0.408 0 0.052 0.006 0.102 0.019 0.15l-0.001-0.004 0.222 0.899c0.054 0.216 0.218 0.378 0.422 0.437 0.066 0.456 0.256 0.86 0.535 1.185l-0.003-0.003v0.712c-2.958 1.515-1.084 0.548-3.454 1.748-0.005 0.022-1.112 1.199-0.948 4.688l0.010 0.213zM19.885 22.826h-2.034v-0.855l1.346-3.081c0.674 1.119 0.699 3.255 0.689 3.935zM17.109 17.023c-0.079 0.902-0.573 0.63-0.878 1.324-0.24-0.264-0.313-0.581-0.248-0.92 0.117-0.622-0.263-0.807-0.169-1.461l0.014-0.015v-0.002c0.008-0.009 0.083-0.098 0.105-0.126 0.805 0.351 1.193 1.003 1.177 1.2zM12.79 16.314c0.366 0.258 0.821 0.413 1.312 0.413 0.47 0 0.906-0.141 1.269-0.383l-0.008 0.005c0.052 0.514 0.252 0.617 0.182 0.995-0.012 0.059-0.021 0.13-0.025 0.203l-0 0.005-1.386 1.562-1.771-1.997 0.428-0.223v-0.579zM12.233 14.403v-2.387c0.215-0.399 0.51-0.688 0.875-0.862 0.978 0.554 2.105 1.38 2.86 2.212-0.001 1.059 0.003 1.062-0.004 1.149l-0 0.006c-0.059 0.962-0.85 1.759-1.864 1.759-0.986 0-1.804-0.774-1.863-1.768-0.002-0.028-0.003-0.061-0.003-0.093 0-0.005 0-0.010 0-0.015v0.001zM11.957 17.332l2.177 2.454 1.462-1.647c0.033 0.096 0.080 0.187 0.134 0.275l-1.595 1.995-2.378-2.975 0.202-0.102zM16.414 14.043v-0.691l0.166-0.191c0.009 0.35 0.047-0.063-0.166 0.882zM13.798 9.415c0.089 0.006 1.276-0.181 2.215 0.833 0.037 0.046 0.801 1.031 0.494 2.108-0.105-0.479-0.288-1.094-0.578-1.386l-0.316 0.315c0.286 0.289 0.474 1.171 0.545 1.628-1.311-1.372-3.002-2.24-3.026-2.254-0.085 0.053-0.8 0.189-1.32 1.199l-0.025 0.048v0.742l-0.066 0.001c-0.33-1.594 0.302-2.861 2.076-3.233zM11.675 13.108l0.112 0.456v0.479l-0.187-0.757c-0.028-0.113 0.056-0.155 0.074-0.178zM11.347 17.638l2.786 3.485 1.885-2.358c0.205 0.184 0.304 0.21 0.738 0.433l-0.146-0.498c-0.037-0.126 0.11-0.329 0.199-0.422 0.2-0.11 0.364-0.262 0.485-0.446l0.003-0.005 1.538 0.772-1.432 3.277v0.949h-6.542v-0.949l-1.432-3.277 1.917-0.962zM9.071 18.891l1.346 3.080v0.854h-2.035c-0.010-0.68 0.015-2.815 0.689-3.934z"></path>
<path fill="none" stroke="#ff6b09" style="stroke: var(--color1, #ff6b09)" stroke-linejoin="miter" stroke-linecap="butt" stroke-miterlimit="4" stroke-width="0.6154" d="M31.077 4.615v-4.308h-30.769v31.385h30.769v-4.308"></path>
</symbol>

<symbol id="icon-advantages-result" viewBox="0 0 31 32">
<path fill="#ff6b09" style="fill: var(--color1, #ff6b09)" d="M7.942 14.958c0 0.165-0.25 0.165-0.25 0 0-3.502 2.84-6.342 6.342-6.342 3.504 0 6.342 2.84 6.342 6.342 0 0.165-0.249 0.165-0.249 0 0-2.367-3.89-2.369-3.89 0 0 0.165-0.256 0.165-0.256 0 0-2.361-3.896-2.361-3.896 0 0 0.165-0.256 0.165-0.256 0 0-2.357-3.888-2.373-3.888 0zM11.853 14.038c0.068-1.362 0.282-2.584 0.593-3.517 0.249-0.742 0.563-1.304 0.919-1.62-2.674 0.292-4.839 2.319-5.323 4.949 0.921-1.328 3.047-1.222 3.811 0.189zM15.963 13.977c-0.069-1.31-0.277-2.482-0.577-3.376-0.772-2.314-1.931-2.314-2.704 0-0.299 0.894-0.506 2.066-0.576 3.376 0.831-1.412 3.026-1.412 3.857 0zM20.027 13.85c-0.482-2.629-2.647-4.657-5.323-4.949 0.358 0.316 0.671 0.879 0.919 1.62 0.311 0.933 0.526 2.154 0.593 3.517 0.768-1.418 2.9-1.502 3.811-0.189zM13.202 17.86v-1.288c-0.232 0.154-0.414 0.392-0.414 0.683 0 0.283 0.186 0.47 0.414 0.605zM13.452 18.26c-0.445-0.204-0.913-0.442-0.913-1.005 0-0.581 0.442-0.872 0.913-1.089v2.094zM14.867 19.803v1.303c0.235-0.156 0.419-0.395 0.419-0.686 0-0.286-0.189-0.479-0.419-0.617zM14.619 19.402c0.446 0.206 0.918 0.452 0.918 1.018 0 0.582-0.445 0.873-0.918 1.089v-2.107z"></path>
<path fill="#ff6b09" style="fill: var(--color1, #ff6b09)" d="M14.867 15.106c1.024 0.237 2.077 1.003 2.077 2.149 0 0.981-1.658 0.945-1.658 0 0-0.292-0.184-0.532-0.419-0.686v1.833c0.948 0.31 2.080 0.865 2.080 2.018 0 1.147-1.053 1.912-2.080 2.147-0.004 1.091-1.662 1.090-1.665-0.002-0.584-0.135-1.092-0.407-1.458-0.768-0.385-0.38-0.612-0.858-0.612-1.378 0-0.966 1.656-0.966 1.656 0 0 0.289 0.182 0.527 0.415 0.682v-1.831c-0.94-0.304-2.078-0.876-2.078-2.018 0-1.147 1.053-1.912 2.078-2.147 0.004-1.092 1.662-1.090 1.665 0.002zM13.452 15.109v0.199c-0.975 0.193-2.080 0.818-2.080 1.943 0 1.083 1.213 1.568 2.080 1.836v2.42c-0.469-0.214-0.914-0.503-0.914-1.087 0-0.638-1.159-0.638-1.159 0 0 0.451 0.201 0.867 0.539 1.199 0.43 0.425 0.951 0.628 1.533 0.743v0.201c0 0.768 1.166 0.768 1.166 0v-0.199c0.978-0.195 2.078-0.819 2.078-1.944 0-1.093-1.21-1.563-2.078-1.837v-2.418c0.47 0.214 0.918 0.503 0.918 1.090 0 0.622 1.157 0.647 1.157 0 0-1.125-1.099-1.75-2.075-1.945v-0.201c0-0.768-1.166-0.768-1.166 0z"></path>
<path fill="none" stroke="#ff6b09" style="stroke: var(--color1, #ff6b09)" stroke-linejoin="miter" stroke-linecap="butt" stroke-miterlimit="4" stroke-width="0.6154" d="M31.077 4.615v-4.308h-30.769v31.385h30.769v-4.308"></path>
</symbol>

<symbol id="icon-element-logo" viewBox="0 0 23 32">
<path fill="#ff6b09" style="fill: var(--color1, #ff6b09)" d="M21.909 16.593c-0.285-0.636-0.675-1.261-1.248-1.984-1.442-1.813-1.882-5.856-1.887-5.895-0.022-0.194-0.155-0.353-0.334-0.411l-0.003-0.001c-0.045-0.015-0.096-0.023-0.15-0.023-0.146 0-0.277 0.063-0.368 0.164l-0 0c-1.721 1.924-0.997 4.896-0.606 6.084 0.107 0.325 0.224 0.708 0.308 1.097 0.635 3.136-0.592 4.557-0.88 4.843-0.279 0.078-0.469 0.039-0.645-0.149-0.607-0.665-0.807-2.842-0.523-5.678 0.023-0.194 0.036-0.419 0.036-0.647 0-0.33-0.027-0.653-0.080-0.968l0.005 0.034c-0.598-3.486-2.791-5.723-3.349-6.507-1.536-2.269-1.692-6.046-1.696-6.080-0.011-0.261-0.225-0.468-0.488-0.468-0.102 0-0.198 0.032-0.276 0.086l0.002-0.001c-2.562 1.742-2.342 5.936-1.985 8.277 0.083 0.544 0.244 1.095 0.523 1.794 0.992 2.496-0.195 5.722-0.205 5.749-0.011 0.030-0.020 0.053-0.025 0.083-0.151 0.796-0.405 1.27-0.69 1.27-0.033-0.001-0.065-0.006-0.095-0.016l0.002 0.001c-0.347-0.073-0.528-0.441-0.533-0.761-0.019-4.135-4.17-5.527-4.213-5.542s-0.096-0.023-0.149-0.023c-0.147 0-0.279 0.066-0.369 0.169l-0.001 0.001c-0.075 0.084-0.12 0.195-0.12 0.317 0 0.079 0.019 0.154 0.053 0.219l-0.001-0.003c0.049 0.101 0.205 0.547 0.098 2.123-0.102 1.521-0.376 2.939-0.803 4.288l0.035-0.128c-0.988 3.221-0.832 6.271-0.821 6.416 0.759 8.258 12.635 9.705 19.682 5.053 0.773-0.51 1.404-1.091 1.868-1.731 2.602-3.588 1.071-8.461-0.068-11.051zM3.843 24.48c0 0.008 0.001 0.016 0.001 0.025 0 0.259-0.203 0.471-0.459 0.484l-0.001 0h-0.030c-0.001 0-0.002 0-0.003 0-0.258 0-0.469-0.201-0.485-0.454l-0-0.001c-0.044-0.707-0.034-1.45 0.019-2.254 0.022-0.254 0.234-0.452 0.492-0.452 0.011 0 0.021 0 0.032 0.001l-0.001-0c0.256 0.017 0.456 0.229 0.456 0.487 0 0.011-0 0.022-0.001 0.032l0-0.001c-0.053 0.766-0.064 1.465-0.019 2.133zM4.082 20.185c-0.030 0.242-0.234 0.427-0.482 0.427-0.001 0-0.001 0-0.002 0h0c-0.020 0-0.039 0-0.064-0.005-0.243-0.032-0.428-0.237-0.428-0.486 0-0.018 0.001-0.036 0.003-0.054l-0 0.002 0.235-1.872c0.035-0.241 0.241-0.425 0.489-0.425 0.021 0 0.041 0.001 0.062 0.004l-0.002-0c0.269 0.034 0.459 0.276 0.425 0.543l-0.235 1.867zM18.601 6.634c-0.236-0.036-0.414-0.237-0.414-0.48 0-0.026 0.002-0.051 0.006-0.075l-0 0.003c0.032-0.197 0.208-1.205 0.687-1.713 0.090-0.095 0.216-0.153 0.356-0.153 0.13 0 0.247 0.050 0.335 0.132l-0-0c0.197 0.182 0.207 0.49 0.021 0.685-0.203 0.214-0.374 0.829-0.433 1.197-0.039 0.234-0.24 0.411-0.482 0.411-0.027 0-0.053-0.002-0.078-0.006l0.003 0zM0.779 9.049c-0.095-0.361-0.327-0.956-0.551-1.15-0.102-0.089-0.166-0.219-0.166-0.364 0-0.123 0.046-0.235 0.122-0.32l-0 0c0.090-0.102 0.222-0.166 0.368-0.166 0.124 0 0.237 0.046 0.323 0.121l-0.001-0c0.527 0.458 0.802 1.444 0.851 1.637 0.010 0.036 0.015 0.077 0.015 0.12 0 0.226-0.155 0.416-0.364 0.469l-0.003 0.001c-0.036 0.010-0.078 0.015-0.121 0.015-0.226 0-0.416-0.153-0.473-0.361l-0.001-0.003z"></path>
</symbol>

<symbol id="icon-how-1" viewBox="0 0 31 32">
<path d="M30.151 4.961l-0.001-0.003c-0.007-0.017-0.015-0.032-0.025-0.046l0.001 0.001-0.003-0.003c-0.010-0.016-0.021-0.029-0.033-0.042l-4.807-4.806c-0.012-0.012-0.025-0.023-0.039-0.032l-0.001-0.001c-0.003-0.002-0.007-0.003-0.009-0.006-0.010-0.006-0.022-0.013-0.034-0.019l-0.002-0.001-0.011-0.004c-0.029-0.012-0.063-0.019-0.098-0.020h-21.177c-0.157 0-0.283 0.127-0.283 0.284 0 0 0 0 0 0v0 29.311c0 0.019 0.001 0.037 0.005 0.055l0.007 0.023 0.010 0.030c0.003 0.009 0.009 0.017 0.013 0.025 0.004 0.007 0.007 0.016 0.013 0.023 0.010 0.015 0.021 0.028 0.033 0.040l2.167 2.167c0.051 0.051 0.122 0.083 0.201 0.083s0.149-0.032 0.201-0.083v0l1.965-1.964 1.964 1.964c0.051 0.052 0.122 0.084 0.201 0.084s0.15-0.032 0.201-0.084l1.963-1.963 1.965 1.963c0.051 0.051 0.122 0.083 0.201 0.083s0.149-0.032 0.201-0.083v0l1.963-1.963 1.964 1.963c0.051 0.051 0.122 0.083 0.201 0.083s0.149-0.032 0.201-0.083v0l1.965-1.964 1.964 1.964c0.051 0.052 0.122 0.084 0.201 0.084s0.149-0.032 0.201-0.084l1.964-1.963 1.965 1.963c0.051 0.051 0.122 0.083 0.201 0.083s0.149-0.032 0.201-0.083v0l2.165-2.165 0.011-0.013c0.008-0.009 0.017-0.019 0.024-0.029 0.007-0.009 0.011-0.020 0.016-0.030 0.004-0.007 0.007-0.012 0.009-0.019 0.007-0.013 0.009-0.027 0.013-0.040l0.005-0.013c0.003-0.017 0.005-0.036 0.005-0.056 0-0 0-0.001 0-0.001v0-24.503c-0.001-0.039-0.009-0.077-0.023-0.111l0.001 0.002zM25.367 0.949l3.836 3.835h-3.836v-3.835zM29.604 29.456l-1.88 1.88-1.965-1.964c-0.051-0.051-0.122-0.083-0.201-0.083s-0.149 0.032-0.201 0.083v0l-1.963 1.964-1.964-1.964c-0.051-0.051-0.122-0.083-0.201-0.083s-0.149 0.032-0.201 0.083v0l-1.965 1.964-1.963-1.964c-0.051-0.052-0.122-0.084-0.201-0.084s-0.15 0.032-0.201 0.084v0l-1.963 1.964-1.965-1.964c-0.052-0.051-0.123-0.083-0.201-0.083s-0.149 0.032-0.201 0.083v0l-1.963 1.964-1.964-1.964c-0.052-0.051-0.123-0.083-0.201-0.083s-0.149 0.032-0.201 0.083v0l-1.964 1.964-1.88-1.88v-28.909h20.603v4.522c0 0.157 0.127 0.284 0.284 0.284h4.521v24.103z"></path>
<path d="M6.313 3.234h9.303c0.157 0 0.284-0.127 0.284-0.284s-0.127-0.284-0.284-0.284h-9.303c-0.157 0-0.284 0.127-0.284 0.284s0.127 0.284 0.284 0.284v0zM6.313 4.991h14.92c0.157 0 0.284-0.127 0.284-0.284s-0.127-0.284-0.284-0.284h-14.92c-0.157 0-0.284 0.127-0.284 0.284s0.127 0.284 0.284 0.284v0zM6.029 6.568v9.199c0 0.157 0.127 0.284 0.285 0.284h21.172c0.157 0 0.284-0.127 0.284-0.284v0-9.199c0-0.157-0.127-0.284-0.284-0.284v0h-21.173c-0 0-0 0-0.001 0-0.157 0-0.284 0.127-0.284 0.284 0 0 0 0 0 0v0zM12.308 6.852h14.893v2.445h-14.893v-2.445zM12.308 9.865h14.893v2.444h-14.893v-2.444zM12.308 12.877h14.893v2.605h-14.893v-2.605zM6.598 6.852h5.142v2.445h-5.142v-2.445zM6.598 9.865h5.142v2.444h-5.142v-2.444zM6.598 12.877h5.142v2.605h-5.142v-2.605zM27.486 17.329h-21.173c-0 0-0 0-0.001 0-0.157 0-0.284 0.127-0.284 0.284 0 0 0 0 0 0v0 9.198c0 0.157 0.127 0.284 0.284 0.284s0.284-0.127 0.284-0.284v-2.889h5.143v2.889c0 0.157 0.127 0.284 0.284 0.284s0.284-0.127 0.284-0.284v0-2.889h14.893v2.889c0 0.157 0.127 0.284 0.284 0.284s0.284-0.127 0.284-0.284v0-9.198c0-0 0-0.001 0-0.001 0-0.156-0.127-0.283-0.283-0.283-0 0-0 0-0.001 0h0zM11.74 23.353h-5.142v-2.443h5.142v2.443zM11.74 20.341h-5.142v-2.444h5.142v2.444zM27.201 23.353h-14.893v-2.443h14.893v2.443zM27.201 20.341h-14.893v-2.444h14.893v2.444zM2.281-0.021c-0.157 0-0.284 0.127-0.284 0.284v29.311c0 0.157 0.127 0.284 0.284 0.284s0.284-0.127 0.284-0.284v0-29.311c0-0.157-0.127-0.284-0.284-0.284v0zM0.718-0.021c-0.157 0-0.284 0.127-0.284 0.284v29.311c0 0.157 0.127 0.284 0.284 0.284s0.284-0.127 0.284-0.284v0-29.311c0-0.157-0.127-0.284-0.284-0.284v0z"></path>
</symbol>

<symbol id="icon-how-2" viewBox="0 0 33 32">
<path d="M30.175-0.128h-15.746c-1.026 0.001-1.858 0.833-1.859 1.859v6.519l-11.699 4.909c-0.139 0.059-0.235 0.194-0.235 0.352 0 0.139 0.074 0.26 0.185 0.326l0.002 0.001 1.492 0.893v9.516c-0.77 0.181-1.334 0.861-1.335 1.673v0.917c0 0.211 0.17 0.381 0.381 0.381h2.671c0.211 0 0.381-0.171 0.381-0.381v0-0.917c0-0.816-0.573-1.498-1.337-1.673v-9.060l1.18 0.706c-0.037 0.272-0.005-0.474-0.017 4.43 0 1.612 4.129 2.476 8.33 2.525v7.425c0 1.025 0.832 1.856 1.857 1.856 0 0 0.001 0 0.001 0h15.745c1.025-0.001 1.857-0.832 1.857-1.857v-0c0 0.051-0.002-1.573 0-28.539 0-1.012-0.836-1.859-1.856-1.859zM3.651 25.918v0.537h-1.908v-0.537c0-0.528 0.427-0.957 0.952-0.957 0.528 0 0.957 0.43 0.957 0.957zM30.175 31.364h-15.746c-0.378 0-0.711-0.191-0.909-0.481-0.117-0.171-0.187-0.383-0.187-0.61 0-0.001 0-0.001 0-0.002v0-2.574h17.934v2.575c0 0.596-0.497 1.092-1.092 1.092zM31.267 26.935h-17.935v-4.086c2.051-0.023 8.335-0.475 8.335-2.527-0.003-3.080 0.005-4.33-0.010-4.436l3.421-2.049c0.111-0.068 0.184-0.189 0.184-0.326 0-0.157-0.095-0.292-0.23-0.35l-0.002-0.001-11.698-4.91v-3.182h17.935v21.868zM12.951 17.792c-2.113 0-6.182 0.273-7.949 1.427 0.011-3.53-0.123-3.3 0.312-3.6 1.098-0.808 4.239-1.373 7.637-1.373 1.482 0 7.954 0.407 7.954 1.777v3.196c-1.784-1.165-5.832-1.428-7.954-1.428zM13.332 1.731c0.001-0.605 0.491-1.095 1.096-1.095 0 0 0 0 0 0h15.745c0.605 0 1.093 0.498 1.093 1.095v2.574h-17.934v-2.574zM12.951 8.915l11.090 4.655-2.748 1.644c-1.461-1.449-6.294-1.729-8.342-1.729-2.051 0-6.884 0.281-8.342 1.729l-2.749-1.644 11.091-4.655zM5.002 20.321c0-0.616 2.73-1.768 7.949-1.768 5.222 0 7.954 1.151 7.954 1.767s-2.732 1.768-7.954 1.768c-5.219 0-7.949-1.151-7.949-1.768z"></path>
<path d="M22.301 28.271c-0.694 0-1.26 0.565-1.26 1.26s0.565 1.26 1.26 1.26 1.26-0.565 1.26-1.26c0-0.694-0.565-1.26-1.26-1.26zM22.301 30.030c-0.264-0.014-0.473-0.232-0.473-0.498s0.209-0.484 0.472-0.498l0.001-0c0.275 0 0.498 0.223 0.498 0.498s-0.223 0.498-0.498 0.498v0zM23.755 2.090h-2.907v0.762h2.907v-0.762z"></path>
</symbol>

<symbol id="icon-how-3" viewBox="0 0 44 32">
<path d="M19.6 4.608h-13.64v1.021h13.64v-1.021zM19.6 8.416h-11.597v1.021h11.597v-1.021zM19.6 12.224h-13.64v1.021h13.64v-1.021zM19.6 16.032h-11.597v1.021h11.597v-1.021zM19.6 19.84h-13.64v1.021h13.64v-1.021zM19.6 23.648h-11.597v1.021h11.597v-1.021zM38.323 4.608h-13.64v1.021h13.64v-1.021zM36.281 8.416h-11.597v1.021h11.596v-1.021zM38.323 12.224h-13.64v1.021h13.64v-1.021zM36.281 16.032h-11.597v1.021h11.596v-1.021zM38.323 19.84h-13.64v1.021h13.64v-1.021zM36.281 23.648h-11.597v1.021h11.596v-1.021z"></path>
<path d="M43.248 3.445h-1.872v-2.812c0-0.282-0.229-0.511-0.511-0.511v0h-15.265c-0.005-0-0.011-0-0.018-0-1.469 0-2.75 0.802-3.43 1.991l-0.010 0.019c-0.691-1.209-1.973-2.011-3.442-2.011-0.006 0-0.012 0-0.017 0h-15.264c-0.282 0-0.511 0.229-0.511 0.511v0 2.812h-1.873c-0.282 0-0.511 0.229-0.511 0.511v0 27.411c0 0.282 0.229 0.511 0.511 0.511h42.213c0.282-0 0.51-0.229 0.51-0.511 0 0 0 0 0 0v0-27.411c0-0.282-0.229-0.511-0.511-0.511v0zM25.601 1.144h14.753v27.349h-15.842c-0.703 0-1.405 0.296-1.859 0.68v-25.088c0-0.003 0-0.006 0-0.009 0-1.619 1.313-2.932 2.932-2.932 0.005 0 0.010 0 0.015 0h-0.001zM3.929 1.144h14.753c0.006-0 0.013-0 0.020-0 1.581 0 2.869 1.255 2.922 2.824l0 0.005c0.001 0.022 0.003 0.091 0.007 0.113v25.087c-0.453-0.383-1.148-0.678-1.852-0.678h-15.85v-27.35zM1.546 4.467h1.362v24.538c0 0.282 0.229 0.511 0.511 0.511h16.36c0.779 0 1.531 0.511 1.772 1.341h-20.005v-26.389zM42.737 30.856h-20.004c0.227-0.78 0.936-1.341 1.775-1.341 0.001 0 0.002 0 0.003 0h16.353c0 0 0 0 0.001 0 0.282 0 0.511-0.229 0.511-0.511v0-24.538h1.361v26.389z"></path>
</symbol>

<symbol id="icon-how-4" viewBox="0 0 33 32">
<path d="M1.993 12.558v2.831c0 0.152 0.069 0.295 0.189 0.39 1.864 1.471 4.246 2.36 6.836 2.362h0c0.741 0 1.482-0.077 2.207-0.224 1.433 0.652 3.108 1.032 4.872 1.032 0.006 0 0.012 0 0.019 0h-0.001c1.707 0 3.351-0.349 4.89-1.032 3.091 0.625 6.385-0.046 9.043-2.138 0.116-0.092 0.189-0.232 0.189-0.39v0-2.831c0-0.415-0.207-0.794-0.575-1.027l-3.867-2.176c0.846-1.073 1.476-2.602 1.586-3.913 0.321-2.256-1.519-4.646-4.166-4.646-1.113 0-2.171 0.459-2.947 1.227-0.027 0.027-0.058 0.049-0.084 0.077-0.024 0.025-0.043 0.054-0.067 0.080-0.015 0.017-0.029 0.035-0.044 0.053-0.757-1.381-2.211-2.233-3.925-2.233-0.167 0-0.329 0.011-0.491 0.028-0.010-0.001-0.019-0.006-0.029-0.006-0.092 0-0.287 0.025-0.391 0.055-0.015 0.004-0.027 0.015-0.041 0.021-1.296 0.262-2.369 1.054-3.002 2.135l-0.011 0.021c-0.77-0.894-1.904-1.457-3.169-1.457-0.003 0-0.007 0-0.010 0h0.001c-3.908 0-5.642 4.612-2.557 8.581l-3.903 2.167c-0.347 0.219-0.553 0.599-0.553 1.014zM20.997 16.828c-0.084 0.041-0.167 0.085-0.251 0.123l-0.002 0.001c-1.349 0.635-2.929 1.006-4.596 1.006-0.011 0-0.022-0-0.033-0h0.002c-0.007 0-0.016 0-0.025 0-2.509 0-4.823-0.837-6.677-2.248l0.027 0.020v-2.87c0-0.097 0.047-0.184 0.102-0.221l4.542-2.525c0.565 0.48 1.287 0.832 2.035 0.832 0.72 0 1.499-0.357 2.052-0.843l4.487 2.52c0.083 0.053 0.131 0.139 0.131 0.237v2.87c-0.52 0.395-1.108 0.76-1.729 1.069l-0.064 0.029zM29.154 12.381c0.056 0.037 0.092 0.099 0.092 0.169 0 0.003-0 0.005-0 0.008v-0 2.587c-1.969 1.477-4.337 2.148-6.737 1.98 0.419-0.265 0.772-0.515 1.111-0.782l-0.028 0.022c0.116-0.092 0.19-0.232 0.19-0.39v-3.115c0-0.435-0.219-0.835-0.611-1.087l-2.383-1.339 0.58-0.321c0.703 0.573 1.307 0.744 1.848 0.744 0.663 0 1.36-0.325 1.878-0.759l4.060 2.284zM23.216 1.788c1.381 0 2.593 0.902 3.021 2.142-0.889-0.115-1.664-0.531-2.235-1.14l-0.002-0.002c-0.091-0.097-0.22-0.158-0.363-0.158-0.18 0-0.338 0.096-0.425 0.24l-0.001 0.002c-0.546 0.916-1.456 1.567-2.524 1.757l-0.022 0.003-0.001-0.003c0-0.025 0.001-0.054 0.001-0.083 0-0.201-0.012-0.399-0.036-0.594l0.002 0.023-0.007-0.066c-0.034-0.24-0.076-0.446-0.13-0.647l0.009 0.038c0.563-0.902 1.609-1.513 2.713-1.513zM20.556 5.643c1.291-0.143 2.407-0.797 3.157-1.751l0.008-0.010c0.767 0.629 1.74 1.010 2.701 1.056-0.007 1.792-1.471 4.927-3.206 4.927-1.337 0-2.479-1.912-2.905-3.238 0.109-0.341 0.187-0.669 0.245-0.983zM20.657 9.373l-0.886 0.491-0.895-0.503c0.332-0.413 0.636-0.893 0.897-1.413 0.25 0.527 0.551 1.010 0.884 1.425zM19.32 6.465c-0.478 1.427-1.705 3.49-3.2 3.49-1.742 0-3.225-2.864-3.508-4.696 0.075-0.019 2.429 0.127 4.049-2.001 0.823 0.688 1.932 1.143 3.011 1.188 0.013 0.647-0.144 1.407-0.352 2.019zM16.149 0.991c2.78 0 3.309 2.393 3.353 2.443-1.017-0.113-1.908-0.58-2.561-1.274l-0.002-0.002c-0.091-0.097-0.219-0.157-0.362-0.157-0.181 0-0.339 0.097-0.426 0.242l-0.001 0.002c-0.533 0.901-1.379 1.569-2.385 1.86l-0.029 0.007c-0.342 0.097-0.734 0.153-1.14 0.153-0.009 0-0.019-0-0.028-0h0.001c0.136-1.821 1.596-3.273 3.58-3.273zM12.461 7.938c0.257 0.515 0.563 1.007 0.913 1.439l-0.875 0.487-0.907-0.51c0.321-0.411 0.61-0.876 0.849-1.369l0.020-0.046zM9.006 1.788c1.125 0 2.155 0.571 2.729 1.514-0.029 0.1-0.107 0.498-0.117 0.548-0.723-0.179-1.343-0.552-1.819-1.061l-0.002-0.002c-0.091-0.097-0.219-0.157-0.362-0.157-0.181 0-0.339 0.097-0.425 0.242l-0.001 0.002c-0.657 1.090-1.832 1.81-3.177 1.815h-0.001c0.158-1.627 1.518-2.9 3.174-2.9zM5.876 5.677c1.475-0.018 2.784-0.712 3.635-1.786l0.007-0.010c0.57 0.468 1.265 0.806 2.027 0.956l0.029 0.005c0.029 0.575 0.179 1.273 0.35 1.789-0.273 0.84-0.799 1.84-1.451 2.505-0.004 0.004-0.009 0.006-0.013 0.010-0.408 0.43-0.988 0.719-1.444 0.719-1.594 0-2.841-2.508-3.14-4.188zM2.985 12.558c0-0.075 0.033-0.139 0.067-0.162l4.116-2.284c0.247 0.206 0.304 0.229 0.353 0.265 0.485 0.323 0.929 0.483 1.534 0.483 0.645 0 1.233-0.273 1.749-0.694 0.029-0.023 0.060-0.045 0.088-0.068l0.587 0.33-2.447 1.361c-0.353 0.229-0.584 0.622-0.584 1.069 0 0.001 0 0.002 0 0.003v-0 3.115c0 0.152 0.070 0.295 0.19 0.389 0.317 0.249 0.727 0.539 1.083 0.761-2.434 0.167-4.803-0.528-6.737-1.98v-2.587z"></path>
<path d="M31.259 20.781c-0.312-0.2-0.693-0.319-1.102-0.319-0.329 0-0.641 0.077-0.917 0.215l0.012-0.005-6.12 2.956c-0.022-1.147-0.956-2.069-2.106-2.071l-3.51 0.001c-1.73-1.504-3.941-2.425-5.952-2.473-1.983-0.047-3.762-0.060-4.592-0.064v-1.002h-6.972v11.517h6.972v-1.379c1.911 1.097 6.939 3.845 9.325 3.845 0.053 0 0.107-0.001 0.157-0.004 4.196-0.235 14.091-7.199 14.743-7.661 0.622-0.367 1.033-1.033 1.034-1.795v-0c0-0.002 0-0.004 0-0.006 0-0.736-0.385-1.382-0.965-1.747l-0.009-0.005zM5.98 28.543h-4.988v-9.533h4.988v9.533zM30.687 23.485c-0.017 0.009-0.031 0.018-0.044 0.028l0.001-0.001c-0.103 0.073-10.281 7.271-14.245 7.493-0.035 0.002-0.077 0.003-0.12 0.003h-0c-2.093 0-7.195-2.753-9.307-4.001v-6.997c0.827 0.003 2.596 0.017 4.569 0.064 1.837 0.044 3.876 0.921 5.455 2.345l0.141 0.128 3.888-0.001c0.618 0.001 1.118 0.501 1.119 1.119v0c-0 0.618-0.501 1.119-1.119 1.119h-7.142v0.992h7.142c0.685 0 1.288-0.333 1.673-0.84l6.984-3.373c0.138-0.070 0.301-0.112 0.474-0.112 0.214 0 0.413 0.063 0.579 0.172l-0.004-0.003c0.323 0.202 0.508 0.537 0.508 0.918-0.001 0.404-0.221 0.756-0.548 0.943l-0.005 0.003zM16.611 12.159h-0.991v0.919h0.991v-0.92zM16.611 13.992h-0.991v0.92h0.991v-0.92zM16.611 15.827h-0.991v0.919h0.991v-0.92z"></path>
</symbol>

<symbol id="icon-how-5" viewBox="0 0 27 32">
<path d="M-0.105 31.754h27.355c0.136-3.12-0.088-8.296-2.006-10.759l-0.069-0.088-4.191-2.104c0.091-0.307 0.136-0.588 0.154-0.795 0.004-0.042 0.007-0.091 0.007-0.14 0-0.199-0.040-0.389-0.112-0.562l0.004 0.010c-0.691-1.654-2.154-2.525-2.959-2.896 0.245-0.494 0.403-1.025 0.479-1.567 0.466-0.134 0.823-0.5 0.94-0.962l0.002-0.009 0.49-1.988c0.026-0.098 0.040-0.21 0.040-0.326 0-0.258-0.072-0.498-0.198-0.703l0.003 0.006c-0.082-0.133-0.182-0.245-0.297-0.339l-0.002-0.002c1.379-3.133-0.931-6.087-1.057-6.243-2.501-2.704-5.662-2.198-5.829-2.168-4.561 0.955-6.321 4.45-5.327 8.549-0.216 0.238-0.348 0.555-0.348 0.903 0 0.115 0.014 0.226 0.041 0.332l-0.002-0.009 0.492 1.99c0.119 0.478 0.483 0.837 0.935 0.967 0.145 1.010 0.566 1.902 1.183 2.621l-0.006-0.007v1.576c-6.546 3.352-2.398 1.213-7.644 3.867-0.010 0.049-2.461 2.654-2.097 10.374l0.022 0.472zM26.299 30.764h-4.502v-1.891l2.977-6.817c1.492 2.476 1.547 7.203 1.525 8.708zM20.155 17.923c-0.174 1.996-1.268 1.393-1.944 2.93-0.531-0.584-0.691-1.285-0.548-2.035 0.258-1.377-0.583-1.786-0.374-3.233l0.031-0.033v-0.005c0.018-0.020 0.184-0.218 0.232-0.28 1.781 0.776 2.639 2.22 2.604 2.655zM10.6 16.355c0.809 0.571 1.816 0.913 2.903 0.913 1.039 0 2.005-0.312 2.809-0.848l-0.019 0.012c0.114 1.137 0.558 1.365 0.402 2.203-0.026 0.131-0.046 0.288-0.055 0.449l-0 0.010-3.066 3.455-3.92-4.419 0.946-0.494v-1.281zM9.367 12.125v-5.282c0.477-0.882 1.127-1.522 1.936-1.906 2.165 1.226 4.657 3.054 6.329 4.894-0.002 2.343 0.007 2.349-0.009 2.542l-0.001 0.012c-0.131 2.128-1.88 3.892-4.124 3.892-2.181 0-3.992-1.712-4.123-3.913-0.005-0.064-0.008-0.139-0.008-0.215 0-0.008 0-0.017 0-0.025v0.001zM8.756 18.607l4.816 5.43 3.234-3.645c0.074 0.213 0.177 0.414 0.296 0.609l-3.53 4.414-5.263-6.583 0.447-0.225zM18.618 11.329v-1.53l0.368-0.422c0.020 0.775 0.104-0.139-0.368 1.952zM12.829 1.089c0.196 0.012 2.824-0.4 4.901 1.843 0.082 0.102 1.773 2.281 1.093 4.665-0.233-1.061-0.638-2.42-1.279-3.068l-0.7 0.697c0.633 0.64 1.049 2.591 1.206 3.602-2.9-3.035-6.642-4.957-6.694-4.989-0.187 0.116-1.771 0.417-2.921 2.653l-0.054 0.106v1.642l-0.146 0.001c-0.731-3.528 0.669-6.331 4.593-7.153zM8.132 9.261l0.248 1.008v1.060l-0.413-1.675c-0.061-0.249 0.124-0.344 0.165-0.394zM7.407 19.284l6.166 7.711 4.172-5.218c0.454 0.406 0.672 0.464 1.634 0.959l-0.324-1.101c-0.082-0.279 0.244-0.728 0.441-0.933 0.443-0.243 0.806-0.581 1.073-0.987l0.007-0.011 3.404 1.709-3.168 7.251v2.099h-14.477v-2.099l-3.169-7.25 4.242-2.13zM2.369 22.058l2.978 6.815v1.891h-4.502c-0.022-1.505 0.033-6.23 1.524-8.706z"></path>
</symbol>

<symbol id="icon-how-6" viewBox="0 0 37 32">
<path d="M2.381 29.453h12.23c0.618 1.262 1.893 2.115 3.367 2.115 0.005 0 0.009 0 0.014-0h0.773c0.004 0 0.009 0 0.014 0 1.474 0 2.748-0.854 3.356-2.093l0.010-0.022h12.237c1.262-0.001 2.285-1.024 2.286-2.286v-21.905c-0.002-1.262-1.024-2.284-2.286-2.285h-1.234v-1.021c-0.001-0.841-0.683-1.523-1.524-1.523h-26.491c-0.841 0.001-1.523 0.682-1.524 1.523v1.021h-1.227c-1.262 0.001-2.285 1.023-2.287 2.285v21.905c0.001 1.262 1.024 2.285 2.287 2.286h0zM31.621 24.751h-12.477v-17.705c2.885 0.377 5.121 2.845 5.121 5.831v0.687l-0.181-0.040c-0.049-0.011-0.106-0.018-0.164-0.018-0.363 0-0.666 0.253-0.743 0.593l-0.001 0.005-1.213 5.52c-0.011 0.049-0.018 0.105-0.018 0.163 0 0.362 0.253 0.666 0.593 0.743l0.005 0.001 2.621 0.578c0.136 0.029 0.273 0.043 0.411 0.043 0.921 0 1.707-0.631 1.907-1.535l0.702-3.192c0.029-0.125 0.045-0.269 0.045-0.417 0-0.929-0.648-1.706-1.517-1.904l-0.013-0.003-0.912-0.201v-1.023c0-3.827-2.917-6.987-6.645-7.371v-3.551h12.48l-0.001 22.796zM24.5 15.177l1.871 0.412c0.233 0.052 0.377 0.275 0.325 0.508l-0.702 3.191c-0.051 0.231-0.306 0.374-0.507 0.331l-1.873-0.413 0.886-4.029zM5.132 1.955h12.487v3.55c-3.731 0.381-6.651 3.542-6.651 7.372v1.022l-0.913 0.202c-0.517 0.115-0.947 0.425-1.218 0.846l-0.005 0.008c-0.193 0.295-0.307 0.657-0.307 1.045 0 0.15 0.017 0.297 0.050 0.437l-0.003-0.013 0.7 3.189c0.199 0.887 0.98 1.539 1.913 1.539 0.146 0 0.288-0.016 0.425-0.046l-0.013 0.002 2.61-0.577c0.344-0.078 0.598-0.381 0.598-0.744 0-0.058-0.006-0.114-0.018-0.168l0.001 0.005-1.213-5.519c-0.077-0.345-0.381-0.598-0.743-0.598-0.058 0-0.115 0.007-0.17 0.019l0.005-0.001-0.174 0.038v-0.685c0-2.988 2.24-5.458 5.128-5.832v17.707h-12.488v-22.797zM12.249 15.177l0.887 4.029-1.863 0.411c-0.027 0.006-0.058 0.009-0.090 0.009-0.205 0-0.377-0.143-0.421-0.334l-0.001-0.003-0.702-3.196c-0.007-0.028-0.011-0.060-0.011-0.094 0-0.084 0.025-0.161 0.067-0.227l-0.001 0.002c0.061-0.094 0.155-0.161 0.265-0.186l0.003-0.001 1.867-0.412zM1.619 5.262c0-0.42 0.341-0.762 0.761-0.762h1.227v20.251c0.001 0.842 0.683 1.524 1.525 1.524h26.491c0.841-0.001 1.523-0.682 1.524-1.523v-20.252h1.234c0.421 0 0.762 0.342 0.762 0.762v21.905c0 0.42-0.341 0.762-0.762 0.762h-12.754c-0.335 0-0.631 0.219-0.729 0.539-0.285 0.92-1.129 1.577-2.126 1.577-0.003 0-0.006 0-0.009-0h-0.772c-0.001 0-0.002 0-0.004 0-1.002 0-1.849-0.661-2.13-1.571l-0.004-0.016c-0.101-0.31-0.388-0.529-0.725-0.529h-12.747c-0.421 0-0.762-0.342-0.762-0.762v-21.905z"></path>
</symbol>

<symbol id="icon-otmetka" viewBox="0 0 45 32">
<path fill="#ff6b09" style="fill: var(--color1, #ff6b09)" d="M38.334 1.514c-1.813 0.756-3.344 1.553-4.8 2.46l0.14-0.081c-2.986 1.797-5.714 3.936-8.274 6.218-2.554 2.305-4.902 4.681-7.11 7.185l-0.082 0.095-3.088 3.474-10.486-14.384-3.958 10.043 14.182 15.477c1.378-2.552 2.704-5.070 4.003-7.258 0.323-0.557 0.661-1.080 0.984-1.613 0 0 1.664-2.677 2.102-3.35 1.923-2.97 3.808-5.521 5.832-7.951l-0.106 0.13c2.085-2.491 4.352-4.87 6.923-6.96 1.28-1.053 2.64-2.027 4.099-2.874 1.456-0.848 3.003-1.59 4.656-2.125-1.72 0.31-3.398 0.848-5.018 1.514z"></path>
</symbol>

<symbol id="icon-vk-1" viewBox="0 0 32 32">
<path fill="#436eab" style="fill: var(--color3, #436eab)" d="M27.541 18.46c1.060 1.037 2.181 2.012 3.133 3.152 0.421 0.508 0.819 1.030 1.123 1.619 0.432 0.836 0.042 1.757-0.709 1.807l-4.661-0.002c-1.202 0.099-2.161-0.384-2.969-1.206-0.645-0.658-1.243-1.358-1.863-2.037-0.246-0.281-0.521-0.527-0.824-0.736l-0.015-0.010c-0.637-0.413-1.189-0.287-1.553 0.377-0.37 0.676-0.454 1.423-0.491 2.176-0.050 1.098-0.382 1.387-1.485 1.436-2.356 0.112-4.593-0.245-6.67-1.434-1.833-1.049-3.253-2.528-4.489-4.203-2.407-3.262-4.251-6.845-5.907-10.529-0.373-0.831-0.1-1.276 0.815-1.292 1.521-0.030 3.042-0.028 4.564-0.002 0.619 0.009 1.027 0.363 1.266 0.947 0.822 2.023 1.829 3.948 3.093 5.732 0.336 0.475 0.679 0.949 1.168 1.284 0.541 0.37 0.953 0.247 1.206-0.354 0.162-0.382 0.233-0.794 0.269-1.202 0.121-1.408 0.137-2.812-0.075-4.213-0.13-0.876-0.623-1.442-1.495-1.609-0.446-0.084-0.38-0.25-0.164-0.505 0.374-0.437 0.727-0.711 1.429-0.711h5.269c0.829 0.164 1.013 0.537 1.127 1.371l0.004 5.853c-0.010 0.323 0.161 1.282 0.743 1.495 0.465 0.153 0.772-0.22 1.052-0.515 1.262-1.339 2.162-2.922 2.965-4.56 0.357-0.72 0.665-1.469 0.962-2.215 0.221-0.555 0.565-0.828 1.191-0.816l5.070 0.004c0.151 0 0.303 0.002 0.448 0.028 0.855 0.145 1.089 0.512 0.826 1.347-0.416 1.309-1.225 2.4-2.016 3.495-0.846 1.17-1.749 2.301-2.589 3.477-0.77 1.075-0.709 1.617 0.247 2.55z"></path>
</symbol>

<symbol id="logo-1" viewBox="0 0 128 45">
<path d="M19.136 6.8V25H13.988V17.902H6.968V25H1.82V6.8H6.968V13.638H13.988V6.8H19.136ZM37.9773 17.98C37.9773 18.0147 37.9513 18.422 37.8993 19.202H27.6553C27.8633 19.93 28.2619 20.4933 28.8513 20.892C29.4579 21.2733 30.2119 21.464 31.1133 21.464C31.7893 21.464 32.3699 21.3687 32.8553 21.178C33.3579 20.9873 33.8606 20.6753 34.3633 20.242L36.9633 22.946C35.5939 24.4713 33.5919 25.234 30.9573 25.234C29.3106 25.234 27.8633 24.922 26.6153 24.298C25.3673 23.674 24.3966 22.8073 23.7033 21.698C23.0273 20.5887 22.6893 19.332 22.6893 17.928C22.6893 16.5413 23.0186 15.302 23.6773 14.21C24.3533 13.1007 25.2806 12.234 26.4593 11.61C27.6379 10.986 28.9639 10.674 30.4373 10.674C31.8413 10.674 33.1153 10.9687 34.2593 11.558C35.4033 12.13 36.3046 12.9707 36.9633 14.08C37.6393 15.172 37.9773 16.472 37.9773 17.98ZM30.4633 14.184C29.7006 14.184 29.0593 14.4007 28.5393 14.834C28.0366 15.2673 27.7159 15.8567 27.5773 16.602H33.3493C33.2106 15.8567 32.8813 15.2673 32.3613 14.834C31.8586 14.4007 31.2259 14.184 30.4633 14.184ZM41.2949 5.708H46.2349V25H41.2949V5.708ZM50.4853 5.708H55.4253V25H50.4853V5.708Z" fill="#111518"/>
<path d="M7.8 37.4V43H6.504V40.704H3.96V43H2.664V37.4H3.96V39.608H6.504V37.4H7.8ZM14.9009 41.96V43H10.5649V37.4H14.7969V38.44H11.8529V39.656H14.4529V40.664H11.8529V41.96H14.9009ZM17.3721 37.4H18.6681V41.944H21.4761V43H17.3721V37.4ZM23.6402 37.4H24.9362V41.944H27.7442V43H23.6402V37.4ZM29.9084 37.4H31.2044V43H29.9084V37.4ZM35.8134 43.096C35.3707 43.096 34.9414 43.0373 34.5254 42.92C34.1147 42.7973 33.784 42.64 33.5334 42.448L33.9734 41.472C34.2134 41.648 34.4987 41.7893 34.8294 41.896C35.16 42.0027 35.4907 42.056 35.8214 42.056C36.1894 42.056 36.4614 42.0027 36.6374 41.896C36.8134 41.784 36.9014 41.6373 36.9014 41.456C36.9014 41.3227 36.848 41.2133 36.7414 41.128C36.64 41.0373 36.5067 40.9653 36.3414 40.912C36.1814 40.8587 35.9627 40.8 35.6854 40.736C35.2587 40.6347 34.9094 40.5333 34.6374 40.432C34.3654 40.3307 34.1307 40.168 33.9334 39.944C33.7414 39.72 33.6454 39.4213 33.6454 39.048C33.6454 38.7227 33.7334 38.4293 33.9094 38.168C34.0854 37.9013 34.3494 37.6907 34.7014 37.536C35.0587 37.3813 35.4934 37.304 36.0054 37.304C36.3627 37.304 36.712 37.3467 37.0534 37.432C37.3947 37.5173 37.6934 37.64 37.9494 37.8L37.5494 38.784C37.032 38.4907 36.5147 38.344 35.9974 38.344C35.6347 38.344 35.3654 38.4027 35.1894 38.52C35.0187 38.6373 34.9334 38.792 34.9334 38.984C34.9334 39.176 35.032 39.32 35.2294 39.416C35.432 39.5067 35.7387 39.5973 36.1494 39.688C36.576 39.7893 36.9254 39.8907 37.1974 39.992C37.4694 40.0933 37.7014 40.2533 37.8934 40.472C38.0907 40.6907 38.1894 40.9867 38.1894 41.36C38.1894 41.68 38.0987 41.9733 37.9174 42.24C37.7414 42.5013 37.4747 42.7093 37.1174 42.864C36.76 43.0187 36.3254 43.096 35.8134 43.096ZM45.6509 37.4V43H44.3549V40.704H41.8109V43H40.5149V37.4H41.8109V39.608H44.3549V37.4H45.6509Z" fill="#FF6B09"/>
<path d="M56.4575 41.96V43H52.1215V37.4H56.3535V38.44H53.4095V39.656H56.0095V40.664H53.4095V41.96H56.4575ZM64.0647 37.4V43H63.0007L60.2087 39.6V43H58.9287V37.4H60.0007L62.7847 40.8V37.4H64.0647ZM70.6136 40.112H71.7976V42.384C71.4936 42.6133 71.1416 42.7893 70.7416 42.912C70.3416 43.0347 69.939 43.096 69.5336 43.096C68.9523 43.096 68.4296 42.9733 67.9656 42.728C67.5016 42.4773 67.1363 42.1333 66.8696 41.696C66.6083 41.2533 66.4776 40.7547 66.4776 40.2C66.4776 39.6453 66.6083 39.1493 66.8696 38.712C67.1363 38.2693 67.5043 37.9253 67.9736 37.68C68.443 37.4293 68.971 37.304 69.5576 37.304C70.0483 37.304 70.4936 37.3867 70.8936 37.552C71.2936 37.7173 71.6296 37.9573 71.9016 38.272L71.0696 39.04C70.6696 38.6187 70.187 38.408 69.6216 38.408C69.2643 38.408 68.947 38.4827 68.6696 38.632C68.3923 38.7813 68.1763 38.992 68.0216 39.264C67.867 39.536 67.7896 39.848 67.7896 40.2C67.7896 40.5467 67.867 40.856 68.0216 41.128C68.1763 41.4 68.3896 41.6133 68.6616 41.768C68.939 41.9173 69.2536 41.992 69.6056 41.992C69.979 41.992 70.315 41.912 70.6136 41.752V40.112ZM74.4415 37.4H75.7375V41.944H78.5455V43H74.4415V37.4ZM80.7096 37.4H82.0056V43H80.7096V37.4ZM86.6146 43.096C86.172 43.096 85.7426 43.0373 85.3266 42.92C84.916 42.7973 84.5853 42.64 84.3346 42.448L84.7746 41.472C85.0146 41.648 85.3 41.7893 85.6306 41.896C85.9613 42.0027 86.292 42.056 86.6226 42.056C86.9906 42.056 87.2626 42.0027 87.4386 41.896C87.6146 41.784 87.7026 41.6373 87.7026 41.456C87.7026 41.3227 87.6493 41.2133 87.5426 41.128C87.4413 41.0373 87.308 40.9653 87.1426 40.912C86.9826 40.8587 86.764 40.8 86.4866 40.736C86.06 40.6347 85.7106 40.5333 85.4386 40.432C85.1666 40.3307 84.932 40.168 84.7346 39.944C84.5426 39.72 84.4466 39.4213 84.4466 39.048C84.4466 38.7227 84.5346 38.4293 84.7106 38.168C84.8866 37.9013 85.1506 37.6907 85.5026 37.536C85.86 37.3813 86.2946 37.304 86.8066 37.304C87.164 37.304 87.5133 37.3467 87.8546 37.432C88.196 37.5173 88.4946 37.64 88.7506 37.8L88.3506 38.784C87.8333 38.4907 87.316 38.344 86.7986 38.344C86.436 38.344 86.1666 38.4027 85.9906 38.52C85.82 38.6373 85.7346 38.792 85.7346 38.984C85.7346 39.176 85.8333 39.32 86.0306 39.416C86.2333 39.5067 86.54 39.5973 86.9506 39.688C87.3773 39.7893 87.7266 39.8907 87.9986 39.992C88.2706 40.0933 88.5026 40.2533 88.6946 40.472C88.892 40.6907 88.9906 40.9867 88.9906 41.36C88.9906 41.68 88.9 41.9733 88.7186 42.24C88.5426 42.5013 88.276 42.7093 87.9186 42.864C87.5613 43.0187 87.1266 43.096 86.6146 43.096ZM96.4522 37.4V43H95.1562V40.704H92.6122V43H91.3162V37.4H92.6122V39.608H95.1562V37.4H96.4522Z" fill="#111518"/>
<path d="M104.432 21.022V25H89.82V6.8H104.094V10.778H94.916V13.846H103.002V17.694H94.916V21.022H104.432ZM125.645 6.8V25H121.407L113.373 15.302V25H108.329V6.8H112.567L120.601 16.498V6.8H125.645Z" fill="#111518"/>
<path d="M82.5392 15.5558C82.2734 14.9604 81.9067 14.374 81.3705 13.6967C80.0184 11.9967 79.6059 8.20581 79.6013 8.16945C79.583 7.98763 79.4546 7.83763 79.285 7.78309C79.1109 7.72854 78.923 7.77854 78.7992 7.9149C77.1859 9.71945 77.8642 12.5058 78.2309 13.6194C78.3317 13.924 78.4417 14.2831 78.5196 14.6467C79.1154 17.5876 77.965 18.9194 77.6946 19.1876C77.4333 19.2604 77.2546 19.224 77.0896 19.0467C76.5213 18.424 76.3333 16.3831 76.5992 13.724C76.6542 13.1831 76.6404 12.6967 76.5625 12.2422C76.0019 8.97386 73.9462 6.8774 73.4229 6.14218C71.9838 4.0149 71.8371 0.473994 71.8325 0.442176C71.8279 0.273994 71.7317 0.123994 71.5804 0.0512668C71.4338 -0.0214604 71.255 -0.0123695 71.1175 0.083085C68.7158 1.7149 68.9221 5.64672 69.2567 7.84218C69.3346 8.35127 69.4858 8.86945 69.7471 9.524C70.6775 11.8649 69.5638 14.8876 69.5546 14.9149C69.5454 14.9422 69.5363 14.9649 69.5317 14.9922C69.3896 15.7376 69.1513 16.1831 68.8854 16.1831C68.8579 16.1831 68.8304 16.1785 68.7983 16.1694C68.4729 16.1013 68.3033 15.7558 68.2988 15.4558C68.2804 11.5785 64.3892 10.274 64.3479 10.2604C64.1738 10.2058 63.9813 10.2558 63.8621 10.3967C63.7383 10.5376 63.7154 10.7331 63.7979 10.8967C63.8438 10.9922 63.9904 11.4104 63.8896 12.8876C63.8025 14.2149 63.5596 15.5285 63.17 16.7876C62.2442 19.8058 62.3908 22.6649 62.4 22.8013C63.1119 30.5425 74.2451 31.899 80.8525 27.5376C81.5767 27.0604 82.1679 26.5149 82.6033 25.9149C85.0417 22.5513 83.6071 17.9831 82.5392 15.5558ZM65.6038 22.9513C65.6175 23.2013 65.425 23.4149 65.173 23.4285H65.1455C64.9025 23.4285 64.7009 23.2422 64.6871 23.0013C64.6459 22.3376 64.655 21.6422 64.7055 20.8876C64.7238 20.6376 64.9438 20.4513 65.1959 20.4649C65.448 20.483 65.6405 20.7012 65.6221 20.9512C65.5717 21.6695 65.5625 22.324 65.6038 22.9513ZM65.8283 18.924C65.8008 19.1558 65.6038 19.324 65.3746 19.324C65.3563 19.324 65.3379 19.324 65.315 19.3195C65.0675 19.2876 64.8888 19.0649 64.9163 18.8149L65.1363 17.0604C65.1683 16.8149 65.3929 16.6376 65.6496 16.6649C65.9017 16.6967 66.0804 16.924 66.0483 17.174L65.8283 18.924Z" fill="#FF6B09"/>
<path d="M79.4383 6.21861C79.1884 6.1802 79.017 5.94851 79.0555 5.70061C79.0841 5.51592 79.2497 4.57047 79.6991 4.09506C79.8721 3.91174 80.1617 3.9022 80.347 4.07442C80.5316 4.24597 80.541 4.53365 80.3678 4.71697C80.1776 4.91829 80.0155 5.49442 79.9614 5.83915C79.9227 6.08442 79.692 6.25656 79.4383 6.21861Z" fill="#FF6B09"/>
<path d="M62.7293 8.48281C62.6416 8.14476 62.4236 7.58726 62.2144 7.40526C62.0239 7.23967 62.0049 6.95249 62.1718 6.76385C62.3384 6.57476 62.6277 6.55544 62.8186 6.72167C63.3125 7.15113 63.5705 8.07599 63.6173 8.25685C63.68 8.4999 63.5323 8.74713 63.2875 8.80972C63.0372 8.87213 62.7917 8.72181 62.7293 8.48281Z" fill="#FF6B09"/>
</symbol>

</defs>
</svg>
